<svg width="16" height="16" viewBox="0 0 16 16" fill="none" xmlns="http://www.w3.org/2000/svg">
<path fill-rule="evenodd" clip-rule="evenodd" d="M2 7V8H3V7H2ZM1.25 6C1.11193 6 1 6.11193 1 6.25V8.75C1 8.88807 1.11193 9 1.25 9H3.75C3.88807 9 4 8.88807 4 8.75V6.25C4 6.11193 3.88807 6 3.75 6H1.25Z" fill="#B7B9BE"/>
<path fill-rule="evenodd" clip-rule="evenodd" d="M7 4V5H8V4H7ZM6.25 3C6.11193 3 6 3.11193 6 3.25V5.75C6 5.88807 6.11193 6 6.25 6H8.75C8.88807 6 9 5.88807 9 5.75V3.25C9 3.11193 8.88807 3 8.75 3H6.25Z" fill="#B7B9BE"/>
<path fill-rule="evenodd" clip-rule="evenodd" d="M2 2V3.03125H3.03125V2H2ZM1.25 1C1.11193 1 1 1.11193 1 1.25V3.78125C1 3.91932 1.11193 4.03125 1.25 4.03125H3.78125C3.91932 4.03125 4.03125 3.91932 4.03125 3.78125V1.25C4.03125 1.11193 3.91932 1 3.78125 1H1.25Z" fill="#B7B9BE"/>
<path fill-rule="evenodd" clip-rule="evenodd" d="M12.0208 9H9V12H6V14H14V6H12.0052L12.0208 9ZM8.25 8C8.11193 8 8 8.11193 8 8.25V11H5.25C5.11193 11 5 11.1119 5 11.25V14.75C5 14.8881 5.11193 15 5.25 15H14.75C14.8881 15 15 14.8881 15 14.75V5.25C15 5.11193 14.8881 5 14.75 5H11.2513C11.1127 5 11.0006 5.11272 11.0013 5.2513L11.0156 8H8.25Z" fill="#B7B9BE"/>
</svg>
