<svg width="14" height="13" viewBox="0 0 14 13" fill="none" xmlns="http://www.w3.org/2000/svg">
<path fill-rule="evenodd" clip-rule="evenodd" d="M2.75 11C3.16421 11 3.5 10.6642 3.5 10.25C3.5 9.83579 3.16421 9.5 2.75 9.5C2.33579 9.5 2 9.83579 2 10.25C2 10.6642 2.33579 11 2.75 11ZM2.75 13C4.26878 13 5.5 11.7688 5.5 10.25C5.5 8.73122 4.26878 7.5 2.75 7.5C1.23122 7.5 0 8.73122 0 10.25C0 11.7688 1.23122 13 2.75 13Z" fill="#B7B9BE"/>
<path fill-rule="evenodd" clip-rule="evenodd" d="M11.25 11C11.6642 11 12 10.6642 12 10.25C12 9.83579 11.6642 9.5 11.25 9.5C10.8358 9.5 10.5 9.83579 10.5 10.25C10.5 10.6642 10.8358 11 11.25 11ZM11.25 13C12.7688 13 14 11.7688 14 10.25C14 8.73122 12.7688 7.5 11.25 7.5C9.73122 7.5 8.5 8.73122 8.5 10.25C8.5 11.7688 9.73122 13 11.25 13Z" fill="#B7B9BE"/>
<path fill-rule="evenodd" clip-rule="evenodd" d="M7.03125 3.5C7.44546 3.5 7.78125 3.16421 7.78125 2.75C7.78125 2.33579 7.44546 2 7.03125 2C6.61704 2 6.28125 2.33579 6.28125 2.75C6.28125 3.16421 6.61704 3.5 7.03125 3.5ZM7.03125 5.5C8.55003 5.5 9.78125 4.26878 9.78125 2.75C9.78125 1.23122 8.55003 0 7.03125 0C5.51247 0 4.28125 1.23122 4.28125 2.75C4.28125 4.26878 5.51247 5.5 7.03125 5.5Z" fill="#B7B9BE"/>
<path d="M2.5 8.21802L4.90036 3.96873L6.64174 4.95241L4.24137 9.2017L2.5 8.21802Z" fill="#B7B9BE"/>
<path d="M11.5167 8.24927L9.11636 3.99998L7.37499 4.98366L9.77535 9.23295L11.5167 8.24927Z" fill="#B7B9BE"/>
<path d="M3.9375 9.5H10.1342V11.5H3.9375V9.5Z" fill="#B7B9BE"/>
</svg>
