<svg width="30" height="28" viewBox="0 0 30 28" fill="none" xmlns="http://www.w3.org/2000/svg">
<g filter="url(#filter0_d_12521_1838)">
<path d="M8 11C8 9.89543 8.89543 9 10 9C11.1046 9 12 9.89543 12 11V13.5C12 13.7761 11.7761 14 11.5 14H8.5C8.22386 14 8 13.7761 8 13.5V11Z" fill="url(#paint0_linear_12521_1838)"/>
<path d="M18 9C16.8954 9 16 9.89543 16 11V13.5C16 13.7761 16.2239 14 16.5 14H19.5C19.7761 14 20 13.7761 20 13.5V11C20 9.89543 19.1046 9 18 9Z" fill="url(#paint1_linear_12521_1838)"/>
<path fill-rule="evenodd" clip-rule="evenodd" d="M14 0C13.4477 0 13 0.447715 13 1V4H2.5C2.22386 4 2 4.22386 2 4.5V9C0.895431 9 0 9.89543 0 11V13C0 14.1046 0.895431 15 2 15V19.5C2 19.7761 2.22386 20 2.5 20H25.5C25.7761 20 26 19.7761 26 19.5V15C27.1046 15 28 14.1046 28 13V11C28 9.89543 27.1046 9 26 9V4.5C26 4.22386 25.7761 4 25.5 4H15V1C15 0.447715 14.5523 0 14 0ZM4 18V6H24V18H4Z" fill="url(#paint2_linear_12521_1838)"/>
<path d="M8 21.5C8 21.2239 8.22386 21 8.5 21H19.5C19.7761 21 20 21.2239 20 21.5V22.5C20 22.7761 19.7761 23 19.5 23H8.5C8.22386 23 8 22.7761 8 22.5V21.5Z" fill="url(#paint3_linear_12521_1838)"/>
<path d="M9.5 24C9.22386 24 9 24.2239 9 24.5V25.5C9 25.7761 9.22386 26 9.5 26H18.5C18.7761 26 19 25.7761 19 25.5V24.5C19 24.2239 18.7761 24 18.5 24H9.5Z" fill="url(#paint4_linear_12521_1838)"/>
</g>
<defs>
<filter id="filter0_d_12521_1838" x="0" y="0" width="32" height="30" filterUnits="userSpaceOnUse" color-interpolation-filters="sRGB">
<feFlood flood-opacity="0" result="BackgroundImageFix"/>
<feColorMatrix in="SourceAlpha" type="matrix" values="0 0 0 0 0 0 0 0 0 0 0 0 0 0 0 0 0 0 127 0" result="hardAlpha"/>
<feOffset dx="2" dy="2"/>
<feGaussianBlur stdDeviation="1"/>
<feComposite in2="hardAlpha" operator="out"/>
<feColorMatrix type="matrix" values="0 0 0 0 0.0901961 0 0 0 0 0.0784314 0 0 0 0 0.384314 0 0 0 0.86 0"/>
<feBlend mode="normal" in2="BackgroundImageFix" result="effect1_dropShadow_12521_1838"/>
<feBlend mode="normal" in="SourceGraphic" in2="effect1_dropShadow_12521_1838" result="shape"/>
</filter>
<linearGradient id="paint0_linear_12521_1838" x1="0.0538722" y1="-25.8921" x2="24.4752" y2="-23.2608" gradientUnits="userSpaceOnUse">
<stop stop-color="#91FFED"/>
<stop offset="0.5" stop-color="#3094FF"/>
<stop offset="1" stop-color="#B57CFF"/>
</linearGradient>
<linearGradient id="paint1_linear_12521_1838" x1="0.0538722" y1="-25.8921" x2="24.4752" y2="-23.2608" gradientUnits="userSpaceOnUse">
<stop stop-color="#91FFED"/>
<stop offset="0.5" stop-color="#3094FF"/>
<stop offset="1" stop-color="#B57CFF"/>
</linearGradient>
<linearGradient id="paint2_linear_12521_1838" x1="0.0538722" y1="-25.8921" x2="24.4752" y2="-23.2608" gradientUnits="userSpaceOnUse">
<stop stop-color="#91FFED"/>
<stop offset="0.5" stop-color="#3094FF"/>
<stop offset="1" stop-color="#B57CFF"/>
</linearGradient>
<linearGradient id="paint3_linear_12521_1838" x1="0.0538722" y1="-25.8921" x2="24.4752" y2="-23.2608" gradientUnits="userSpaceOnUse">
<stop stop-color="#91FFED"/>
<stop offset="0.5" stop-color="#3094FF"/>
<stop offset="1" stop-color="#B57CFF"/>
</linearGradient>
<linearGradient id="paint4_linear_12521_1838" x1="0.0538722" y1="-25.8921" x2="24.4752" y2="-23.2608" gradientUnits="userSpaceOnUse">
<stop stop-color="#91FFED"/>
<stop offset="0.5" stop-color="#3094FF"/>
<stop offset="1" stop-color="#B57CFF"/>
</linearGradient>
</defs>
</svg>
