<svg width="14" height="13" viewBox="0 0 14 13" fill="none" xmlns="http://www.w3.org/2000/svg">
<path d="M4 5.5C4 4.94772 4.44772 4.5 5 4.5C5.55228 4.5 6 4.94772 6 5.5V6.75C6 6.88807 5.88807 7 5.75 7H4.25C4.11193 7 4 6.88807 4 6.75V5.5Z" fill="white"/>
<path d="M9 4.5C8.44771 4.5 8 4.94772 8 5.5V6.75C8 6.88807 8.11193 7 8.25 7H9.75C9.88807 7 10 6.88807 10 6.75V5.5C10 4.94772 9.55229 4.5 9 4.5Z" fill="white"/>
<path fill-rule="evenodd" clip-rule="evenodd" d="M7 0C6.72386 0 6.5 0.223858 6.5 0.5V2H1.25C1.11193 2 1 2.11193 1 2.25V4.5C0.447715 4.5 0 4.94772 0 5.5V6.5C0 7.05228 0.447715 7.5 1 7.5V9.75C1 9.88807 1.11193 10 1.25 10H12.75C12.8881 10 13 9.88807 13 9.75V7.5C13.5523 7.5 14 7.05228 14 6.5V5.5C14 4.94772 13.5523 4.5 13 4.5V2.25C13 2.11193 12.8881 2 12.75 2H7.5V0.5C7.5 0.223858 7.27614 0 7 0ZM2 9V3H12V9H2Z" fill="white"/>
<path d="M4 10.75C4 10.6119 4.11193 10.5 4.25 10.5H9.75C9.88807 10.5 10 10.6119 10 10.75V11.25C10 11.3881 9.88807 11.5 9.75 11.5H4.25C4.11193 11.5 4 11.3881 4 11.25V10.75Z" fill="white"/>
<path d="M4.75 12C4.61193 12 4.5 12.1119 4.5 12.25V12.75C4.5 12.8881 4.61193 13 4.75 13H9.25C9.38807 13 9.5 12.8881 9.5 12.75V12.25C9.5 12.1119 9.38807 12 9.25 12H4.75Z" fill="white"/>
</svg>
