<svg width="365" height="365" viewBox="0 0 365 365" fill="none" xmlns="http://www.w3.org/2000/svg">
<g clip-path="url(#clip0_5701_5885)">
<path opacity="0.16" d="M191.401 36.6895C160.143 36.6895 122.662 58.4164 105.845 98.9855C92.3505 131.538 138.889 149.569 61.4255 201.21C36.538 217.802 52.087 255.392 72.8811 280.837C103.741 318.602 150.061 341.446 195.351 341.446C274.756 341.446 307.171 309.485 313.473 259.11C320.146 205.768 306.032 173.948 284.013 131.333C263.054 90.7689 263.3 36.6922 191.401 36.6922V36.6895Z" fill="white"/>
<path opacity="0.12" d="M189.408 260.31C206.247 259.293 223.202 262.943 240.054 265.655C267.234 270.03 264.609 266.615 290.821 259.829C334.808 248.443 293.32 212.938 316.141 195.11C344.584 172.888 314.227 133.331 287.699 124.89C257.774 115.367 273.931 154.46 243.223 150.166C226.287 147.798 211.192 137.002 196.032 127.91C173.418 114.345 155.333 98.6285 129.991 97.6497C104.65 96.6737 98.5934 106.237 83.258 127.104C67.9199 147.968 65.7758 180.799 81.6493 202.94C87.2784 210.794 95.157 217.846 96.4683 227.49C98.2094 240.289 67.517 250.268 56.9861 255.722C46.4551 261.178 34.2209 265.466 28.4836 276.408C4.26656 322.59 80.6678 331.863 105.074 326.789C122.329 323.201 129.708 310.739 137.824 295.253C149.291 273.38 165.191 261.773 189.411 260.313L189.408 260.31Z" fill="white"/>
<path d="M108.962 258.871C100.873 274.402 76.9205 278.398 64.2294 266.331C51.5382 254.264 54.3176 230.142 69.4178 221.276C56.0317 224.605 40.9883 213.739 39.942 199.985C38.8957 186.231 52.1276 173.215 65.8624 174.483C56.8969 164.445 48.5614 152.962 46.6877 139.635C44.8168 126.309 51.4408 110.968 64.297 106.983C75.2632 103.582 87.4136 109.335 94.8704 118.065C102.33 126.796 106.096 138 109.698 148.904C107.71 141.936 110.517 133.866 116.397 129.632C122.278 125.4 130.822 125.303 136.799 129.399C143.218 133.801 146.081 142.069 145.949 149.85C145.816 157.631 143.145 165.118 140.506 172.439C140.793 164.318 146.733 156.707 154.544 154.46C162.355 152.213 171.434 155.501 175.992 162.228C180.567 168.976 180.429 178.06 177.642 185.72C174.857 193.382 169.755 199.944 164.734 206.366C170.934 198.684 184.947 204.473 187.364 214.044C189.781 223.615 184.258 233.427 177.561 240.678C164.648 254.662 146.425 263.622 127.466 265.306" fill="#00C7FD"/>
<path d="M124.143 235.458C123.954 235.458 123.8 235.306 123.797 235.114C123.595 221.982 120.675 208.296 115.118 194.437C110.668 183.341 104.531 172.113 96.8711 161.062C83.8231 142.237 70.7128 130.3 70.5803 130.183C70.437 130.054 70.4262 129.835 70.556 129.694C70.6858 129.551 70.9048 129.54 71.0454 129.67C71.1778 129.789 84.3368 141.766 97.4308 160.654C105.123 171.75 111.29 183.027 115.759 194.172C121.35 208.112 124.289 221.885 124.492 235.106C124.495 235.298 124.341 235.455 124.149 235.458C124.149 235.458 124.146 235.458 124.143 235.458Z" fill="#333333"/>
<path d="M75.0224 201.796C71.194 201.796 68.7633 201.161 68.6092 201.118C68.4227 201.069 68.3145 200.877 68.3632 200.693C68.4119 200.509 68.6038 200.399 68.7877 200.447C68.8445 200.463 74.6034 201.964 82.3657 200.323C89.5224 198.811 99.9046 194.237 108.705 181.032C108.811 180.872 109.027 180.829 109.186 180.935C109.346 181.04 109.389 181.256 109.284 181.416C100.343 194.829 89.7684 199.474 82.4738 201.007C79.662 201.599 77.1286 201.791 75.0197 201.791L75.0224 201.796Z" fill="#333333"/>
<path opacity="0.25" d="M191.401 36.6895C160.143 36.6895 122.662 58.4164 105.845 98.9855C92.3505 131.538 138.889 149.569 61.4255 201.21C36.538 217.802 52.087 255.392 72.8811 280.837C103.741 318.602 150.061 341.446 195.351 341.446C274.756 341.446 307.171 309.485 313.473 259.11C320.146 205.768 306.032 173.948 284.013 131.333C263.054 90.7689 263.3 36.6922 191.401 36.6922V36.6895Z" fill="black"/>
<path d="M253.096 267.161C331.488 289.688 369.053 186.023 310.58 217.51C325.594 205.26 342.962 183.044 341.056 167.692C339.693 156.723 332.32 154.511 324.609 156.788C321.216 157.791 318.231 154.327 319.818 151.164C336.519 117.863 318.915 98.2419 301.117 120.653C298.821 123.543 294.147 122.116 293.947 118.43C292.151 85.0613 259.066 105.45 262.608 153.343C261.654 140.436 250.074 126.423 238.829 138.649C228.587 152.657 229.593 170.804 232.532 188.105C229.507 171.956 207.955 155.752 199.896 177.498C189.311 213.025 213.925 255.903 253.096 267.161Z" fill="#FEC91B"/>
<path d="M298.968 163.92C298.968 163.92 278.876 261.862 244.926 294.088L298.968 163.92Z" fill="#FEC91B"/>
<path d="M244.929 294.425C244.839 294.425 244.75 294.39 244.683 294.32C244.553 294.185 244.561 293.971 244.696 293.841C252.41 286.52 260.045 275.137 267.388 260.007C273.272 247.889 278.979 233.359 284.357 216.818C293.512 188.648 298.589 164.093 298.638 163.85C298.676 163.666 298.854 163.55 299.038 163.588C299.222 163.626 299.338 163.804 299.3 163.988C299.249 164.234 294.168 188.819 285 217.024C279.614 233.595 273.893 248.154 267.997 260.302C260.616 275.505 252.932 286.955 245.158 294.333C245.094 294.396 245.01 294.425 244.926 294.425H244.929Z" fill="#333333"/>
<path d="M241.503 215.142C250.942 246.3 273.331 248.657 273.331 248.657L241.503 215.142Z" fill="#FEC91B"/>
<path d="M273.331 248.995C273.331 248.995 273.307 248.995 273.296 248.995C273.063 248.971 267.54 248.346 260.772 243.869C254.543 239.748 246.088 231.435 241.181 215.242C241.127 215.064 241.227 214.874 241.406 214.82C241.584 214.766 241.773 214.866 241.827 215.045C246.667 231.024 254.986 239.219 261.11 243.28C267.745 247.678 273.312 248.314 273.366 248.319C273.553 248.338 273.685 248.506 273.666 248.69C273.647 248.863 273.501 248.992 273.331 248.992V248.995Z" fill="#333333"/>
<path d="M293.741 186.961C293.741 186.961 304.083 191.668 312.659 177.677L293.741 186.961Z" fill="#FEC91B"/>
<path d="M297.962 188.062C295.382 188.062 293.69 187.307 293.603 187.269C293.433 187.191 293.36 186.991 293.436 186.823C293.514 186.653 293.714 186.577 293.882 186.656C293.906 186.667 296.448 187.791 299.971 187.229C304.64 186.485 308.928 183.122 312.373 177.504C312.47 177.344 312.678 177.295 312.838 177.393C312.997 177.49 313.046 177.698 312.948 177.858C310.466 181.908 306.211 186.937 300.036 187.902C299.295 188.018 298.6 188.064 297.959 188.064L297.962 188.062Z" fill="#333333"/>
<path d="M278.449 236.344C278.449 236.344 297.797 236.328 301.201 208.591L278.449 236.344Z" fill="#FEC91B"/>
<path d="M278.449 236.682C278.262 236.682 278.111 236.531 278.111 236.345C278.111 236.158 278.262 236.007 278.449 236.007C278.498 236.007 283.275 235.955 288.396 232.565C296.964 226.892 299.906 216.375 300.865 208.55C300.887 208.367 301.057 208.234 301.241 208.256C301.428 208.277 301.558 208.448 301.536 208.632C300.557 216.61 297.543 227.341 288.737 233.151C283.451 236.639 278.652 236.682 278.452 236.682H278.449Z" fill="#333333"/>
<path opacity="0.25" d="M189.408 260.31C206.247 259.293 223.202 262.943 240.054 265.655C267.234 270.03 264.609 266.615 290.821 259.829C334.808 248.443 293.32 212.938 316.141 195.11C344.584 172.888 314.227 133.331 287.699 124.89C257.774 115.367 273.931 154.46 243.223 150.166C226.287 147.798 211.192 137.002 196.032 127.91C173.418 114.345 155.333 98.6285 129.991 97.6497C104.65 96.6737 98.5934 106.237 83.258 127.104C67.9199 147.968 65.7758 180.799 81.6493 202.94C87.2784 210.794 95.157 217.846 96.4683 227.49C98.2094 240.289 67.517 250.268 56.9861 255.722C46.4551 261.178 34.2209 265.466 28.4836 276.408C4.26656 322.59 80.6678 331.863 105.074 326.789C122.329 323.201 129.708 310.739 137.824 295.253C149.291 273.38 165.191 261.773 189.411 260.313L189.408 260.31Z" fill="black"/>
<path d="M113.566 81.8955H266.818C276.473 81.8955 284.313 89.7362 284.313 99.3912V205.658C284.313 211.598 279.49 216.421 273.55 216.421H106.837C100.897 216.421 96.0735 211.598 96.0735 205.658V99.3912C96.0735 89.7362 103.914 81.8955 113.569 81.8955H113.566Z" fill="#00C7FD"/>
<path d="M96.0708 197.552H284.616V208.331C284.616 212.795 280.991 216.421 276.527 216.421H104.163C99.6992 216.421 96.0735 212.795 96.0735 208.331V197.552H96.0708Z" fill="#A0EBFF"/>
<path d="M260.986 88.1841H118.514C109.769 88.1841 102.679 95.2739 102.679 104.02V173.367C102.679 182.113 109.769 189.203 118.514 189.203H260.986C269.732 189.203 276.822 182.113 276.822 173.367V104.02C276.822 95.2739 269.732 88.1841 260.986 88.1841Z" fill="#005B85"/>
<path d="M248.003 101.048L249.268 103.614C249.382 103.841 249.598 104.001 249.849 104.038L252.68 104.449C253.316 104.541 253.567 105.32 253.11 105.769L251.061 107.767C250.88 107.945 250.796 108.199 250.839 108.451L251.323 111.271C251.431 111.903 250.769 112.385 250.201 112.087L247.668 110.757C247.443 110.638 247.173 110.638 246.948 110.757L244.415 112.087C243.847 112.385 243.185 111.903 243.293 111.271L243.777 108.451C243.82 108.199 243.736 107.943 243.555 107.767L241.506 105.769C241.046 105.32 241.3 104.541 241.936 104.449L244.766 104.038C245.018 104.001 245.237 103.844 245.348 103.614L246.613 101.048C246.897 100.472 247.716 100.472 248 101.048H248.003Z" fill="#FFE17A"/>
<path d="M260.51 122.124L261.059 123.237C261.108 123.338 261.202 123.405 261.313 123.421L262.543 123.6C262.819 123.64 262.93 123.978 262.73 124.173L261.84 125.041C261.762 125.119 261.724 125.23 261.743 125.338L261.954 126.563C262 126.839 261.713 127.047 261.467 126.917L260.367 126.339C260.27 126.287 260.153 126.287 260.053 126.339L258.953 126.917C258.707 127.047 258.418 126.839 258.466 126.563L258.677 125.338C258.696 125.23 258.661 125.119 258.58 125.041L257.69 124.173C257.49 123.978 257.601 123.64 257.877 123.6L259.107 123.421C259.215 123.405 259.31 123.338 259.361 123.237L259.91 122.124C260.034 121.875 260.389 121.875 260.513 122.124H260.51Z" fill="#FEC91B"/>
<mask id="mask0_5701_5885" style="mask-type:luminance" maskUnits="userSpaceOnUse" x="102" y="88" width="175" height="102">
<path d="M260.986 88.1841H118.514C109.769 88.1841 102.679 95.2739 102.679 104.02V173.367C102.679 182.113 109.769 189.203 118.514 189.203H260.986C269.732 189.203 276.822 182.113 276.822 173.367V104.02C276.822 95.2739 269.732 88.1841 260.986 88.1841Z" fill="white"/>
</mask>
<g mask="url(#mask0_5701_5885)">
<path d="M288.375 117.684C291.232 133.993 279.055 149.845 264.201 157.153C249.344 164.461 232.289 165.342 215.813 166.943C175.468 170.863 135.623 179.899 97.5336 193.769C76.5691 201.402 53.9148 212.846 47.2123 234.127C40.5396 255.308 53.3254 278.828 71.8268 291.113C90.3283 303.399 113.207 306.803 135.326 308.787C167.273 311.653 200.08 312.118 230.74 302.699C261.4 293.279 289.91 272.671 302.391 243.122C314.868 213.574 307.671 175.07 281.41 156.653" fill="#0095CA"/>
<path d="M297.186 223.364C302.866 234.752 296.826 270.987 309.426 272.785C321.411 274.493 333.318 265.831 337.704 254.545C342.089 243.26 339.975 230.244 334.562 219.416C329.149 208.588 318.534 202.586 309.934 194.066C291.822 176.127 276.705 159.724 252.404 152.026C240.062 148.117 216.037 139.389 200.415 148.887C188.878 155.901 202.18 172.677 210.316 176.546C234.747 188.169 278.065 185.022 297.189 223.364H297.186Z" fill="#A0EBFF"/>
</g>
<path d="M206.971 168.051C215.453 174.659 226.892 177.314 237.418 175.119L233.535 171.277C232.632 170.385 233.56 168.884 234.763 169.292L244.41 172.569C241.373 167.467 237.145 163.082 232.17 159.843C231.651 159.505 232 158.702 232.6 158.851L235.195 159.497C231.351 151.437 222.529 146.024 213.601 146.252C208.948 146.37 203.281 149.28 201.237 153.749C198.733 159.218 202.859 164.85 206.969 168.051H206.971Z" fill="#FEC91B"/>
<path d="M201.202 155.741C200.796 159.048 202.786 162.322 205.547 164.185C208.31 166.048 211.716 166.702 215.042 166.875C218.368 167.051 221.709 166.789 225.032 167.021C222.41 165.326 221.479 161.952 221.12 158.848C220.76 155.744 220.725 152.462 219.146 149.766C217.373 146.735 213.658 144.973 210.189 145.511C206.72 146.049 203.713 148.855 202.94 152.281L201.199 155.744L201.202 155.741Z" fill="#FFE17A"/>
<path d="M215.507 116.516C217.005 117.373 216.829 119.609 215.207 120.193C214.428 120.474 213.574 120.569 212.719 120.444C204.795 119.282 196.786 122.924 192.512 129.924L175.622 120.263L178.123 115.889C183.062 107.25 194.072 104.255 202.71 109.194L215.51 116.516H215.507Z" fill="#00C7FD"/>
<path d="M179.923 151.945L163.033 142.285L160.533 146.66C155.593 155.298 158.589 166.305 167.227 171.247L180.589 178.891C181.619 179.48 182.93 179.123 183.519 178.093C183.987 177.276 183.882 176.238 183.225 175.562C177.149 169.284 175.762 159.738 179.926 151.948L179.923 151.945Z" fill="#00C7FD"/>
<path d="M213.409 140.287L209.059 139.492L195.994 162.333L198.904 165.699C199.72 166.645 200.693 167.448 201.775 168.073C202.475 168.476 203.373 168.235 203.776 167.535L217.546 143.632C217.954 142.926 217.708 142.023 217.002 141.617L216.954 141.59C215.856 140.96 214.655 140.522 213.409 140.292V140.287Z" fill="#0095CA"/>
<mask id="mask1_5701_5885" style="mask-type:luminance" maskUnits="userSpaceOnUse" x="195" y="139" width="23" height="30">
<path d="M213.409 140.287L209.059 139.492L195.994 162.333L198.904 165.699C199.72 166.645 200.693 167.448 201.775 168.073C202.475 168.476 203.373 168.235 203.776 167.535L217.548 143.623C217.954 142.92 217.711 142.023 217.008 141.62L216.951 141.588C215.853 140.958 214.653 140.52 213.406 140.29L213.409 140.287Z" fill="white"/>
</mask>
<g mask="url(#mask1_5701_5885)">
<path d="M219.322 142.409L203.021 170.906L200.012 169.184C200.012 169.184 204.106 159.875 207.372 154.206C210.505 148.766 216.313 140.687 216.313 140.687L219.322 142.409Z" fill="#005B85"/>
</g>
<path d="M209.091 139.928C210.156 138.068 209.913 135.732 208.483 134.139C202.891 127.912 195.145 121.694 185.931 116.422C168.425 106.407 147.23 108.697 138.111 110.357C135.634 110.809 134.163 113.377 135.031 115.74C138.221 124.444 146.992 143.872 164.499 153.887C173.716 159.159 183 162.682 191.203 164.345C193.304 164.772 195.437 163.796 196.502 161.936L209.091 139.928Z" fill="#D2F9FF"/>
<mask id="mask2_5701_5885" style="mask-type:luminance" maskUnits="userSpaceOnUse" x="134" y="108" width="76" height="57">
<path d="M209.091 139.928C210.156 138.068 209.913 135.732 208.483 134.139C202.891 127.912 195.145 121.694 185.931 116.422C168.425 106.407 147.23 108.697 138.111 110.357C135.634 110.809 134.163 113.377 135.031 115.74C138.221 124.444 146.992 143.872 164.499 153.887C173.716 159.159 183 162.682 191.203 164.345C193.304 164.772 195.437 163.796 196.502 161.936L209.091 139.928Z" fill="white"/>
</mask>
<g mask="url(#mask2_5701_5885)">
<path d="M157.699 95.0326C158.759 95.6382 159.313 96.8549 159.064 98.0499C158.307 101.708 156.05 110.049 149.774 121.021C144.727 129.843 139.438 134.858 136.875 136.972C135.969 137.721 134.696 137.829 133.674 137.245L123.992 131.803C122.637 131.027 122.167 129.302 122.943 127.947L144.251 90.6931C145.027 89.3386 146.752 88.8681 148.106 89.6441L157.696 95.0326H157.699Z" fill="#00C7FD"/>
<path d="M204.727 161.017L218.584 136.959L218.183 134.526L194.037 118.979L166.835 108.824C180.705 112.204 199.539 123.059 189.448 157.71C186.299 168.527 195.01 166.205 204.727 161.014V161.017Z" fill="#A0EBFF"/>
</g>
<path d="M160.633 137.521C166.393 137.521 171.063 132.851 171.063 127.091C171.063 121.33 166.393 116.66 160.633 116.66C154.872 116.66 150.202 121.33 150.202 127.091C150.202 132.851 154.872 137.521 160.633 137.521Z" fill="#A0EBFF"/>
<path d="M160.733 134.661C165.008 134.661 168.473 131.195 168.473 126.92C168.473 122.645 165.008 119.179 160.733 119.179C156.458 119.179 152.992 122.645 152.992 126.92C152.992 131.195 156.458 134.661 160.733 134.661Z" fill="#005B85"/>
<path d="M160.633 131.719C163.189 131.719 165.261 129.647 165.261 127.09C165.261 124.534 163.189 122.461 160.633 122.461C158.076 122.461 156.004 124.534 156.004 127.09C156.004 129.647 158.076 131.719 160.633 131.719Z" fill="white"/>
<path d="M186.75 149.174C177.793 144.051 171.953 137.416 173.705 134.352C175.457 131.289 184.139 132.96 193.093 138.084C199.331 141.652 203.208 147.438 204.987 150.623C205.592 151.708 204.83 153.04 203.589 153.068C199.942 153.149 192.988 152.74 186.75 149.174Z" fill="#00C7FD"/>
<path d="M142.618 147.968H114.059C113.013 147.968 112.166 148.816 112.166 149.861V149.864C112.166 150.909 113.013 151.756 114.059 151.756H142.618C143.663 151.756 144.51 150.909 144.51 149.864V149.861C144.51 148.816 143.663 147.968 142.618 147.968Z" fill="#0095CA"/>
<path d="M142.618 155.287H114.059C113.013 155.287 112.166 156.134 112.166 157.18V157.182C112.166 158.228 113.013 159.075 114.059 159.075H142.618C143.663 159.075 144.51 158.228 144.51 157.182V157.18C144.51 156.134 143.663 155.287 142.618 155.287Z" fill="#0095CA"/>
<path d="M127.288 166.832H113.767C112.883 166.832 112.166 167.549 112.166 168.433V171.85C112.166 172.734 112.883 173.451 113.767 173.451H127.288C128.172 173.451 128.888 172.734 128.888 171.85V168.433C128.888 167.549 128.172 166.832 127.288 166.832Z" fill="#FF5662"/>
<path d="M301.671 305.332H76.4986C66.5949 305.332 58.5676 297.543 58.5676 287.934L63.6939 254.365C63.6939 244.756 71.7211 236.966 81.6248 236.966H293.979C303.883 236.966 311.91 244.756 311.91 254.365L319.599 287.934C319.599 297.543 311.572 305.332 301.668 305.332H301.671Z" fill="#A0EBFF"/>
<path d="M299.408 297.594H241.733C235.828 297.594 231.391 291.002 232.532 283.921L237.264 254.57C238.129 249.2 241.984 245.329 246.464 245.329H294.485C298.938 245.329 302.777 249.154 303.669 254.486L308.593 283.837C309.785 290.943 305.343 297.594 299.408 297.594Z" fill="#00C7FD"/>
<path d="M292.23 269.414H248.914C247.395 269.414 246.164 270.645 246.164 272.163V272.536C246.164 274.055 247.395 275.286 248.914 275.286H292.23C293.749 275.286 294.98 274.055 294.98 272.536V272.163C294.98 270.645 293.749 269.414 292.23 269.414Z" fill="#6DDCFF"/>
<path d="M294.928 280.291H246.21C244.426 280.291 242.979 281.737 242.979 283.521C242.979 285.306 244.426 286.752 246.21 286.752H294.928C296.713 286.752 298.159 285.306 298.159 283.521C298.159 281.737 296.713 280.291 294.928 280.291Z" fill="#6DDCFF"/>
<path d="M135.112 297.594H77.4368C71.5319 297.594 67.0951 291.002 68.2361 283.921L72.9676 254.57C73.8328 249.2 77.6883 245.329 82.1683 245.329H130.189C134.642 245.329 138.481 249.154 139.373 254.486L144.297 283.837C145.489 290.943 141.047 297.594 135.112 297.594Z" fill="#005B85"/>
<path d="M127.934 254.04H84.6178C83.0992 254.04 81.8682 255.271 81.8682 256.79V257.163C81.8682 258.681 83.0992 259.912 84.6178 259.912H127.934C129.452 259.912 130.684 258.681 130.684 257.163V256.79C130.684 255.271 129.452 254.04 127.934 254.04Z" fill="#0095CA"/>
<path d="M130.635 264.92H81.917C80.1326 264.92 78.686 266.366 78.686 268.151C78.686 269.935 80.1326 271.382 81.917 271.382H130.635C132.419 271.382 133.866 269.935 133.866 268.151C133.866 266.366 132.419 264.92 130.635 264.92Z" fill="#0095CA"/>
<path d="M95.303 283.708H108.373C110.541 283.708 112.298 285.468 112.298 287.634V289.686H91.3772V287.634C91.3772 285.465 93.1373 283.708 95.303 283.708Z" fill="#FF5662"/>
<path d="M82.693 283.849H79.846C78.1168 283.849 76.7151 285.25 76.7151 286.98C76.7151 288.709 78.1168 290.11 79.846 290.11H82.693C84.4221 290.11 85.8239 288.709 85.8239 286.98C85.8239 285.25 84.4221 283.849 82.693 283.849Z" fill="#00C7FD"/>
<path d="M135.712 283.421H119.201V289.683H135.712V283.421Z" fill="#0095CA"/>
<path d="M149.848 287.087C145.303 288.112 135.202 288.18 128.699 287.169C127.969 287.055 119.815 286.276 116.2 285.941C112.588 285.606 110.93 287.336 107.17 284.424C104.931 282.691 99.9507 287.085 99.2234 286.447C98.3501 285.682 100.451 282.978 101.535 281.391C102.681 279.709 109.714 277.016 113.888 279.006C120.329 282.075 129.967 280.928 133.755 280.09C139.057 278.917 147.99 277.925 148.277 272.501C148.701 264.487 149.474 249.409 150.445 243.896C154.925 218.397 163.72 227.344 162.974 248.022C162.112 271.89 163.009 284.121 149.85 287.09L149.848 287.087Z" fill="#FFBB8D"/>
<path d="M223.453 285.162C219.379 287.425 207.62 291.091 202.897 291.356C198.171 291.621 193.707 295.244 193.418 290.518C193.085 285.097 199.293 282.104 204.414 280.304C209.537 278.5 219.049 276.929 217.678 271.673C205.062 223.301 220.452 217.451 225.438 242.592C230.083 266.02 236.49 277.919 223.456 285.162H223.453Z" fill="#FFBB8D"/>
<path d="M157.872 302.255C157.499 314.211 168.938 312.467 174.121 312.5C195.483 312.638 194.353 317.447 208.924 312.927C220.533 308.336 213.441 288.588 210.454 281.134C204.395 266.015 203.129 262.354 210.365 245.81C213.285 239.135 220.03 229.572 216.456 221.653C211.744 211.214 186.656 209.797 178.455 211.827C168.784 214.22 161.482 214.985 162.934 235.815C163.604 245.451 167.881 244.434 169.644 264.412C170.647 275.794 158.243 290.505 157.878 302.255H157.872Z" fill="#FF8F51"/>
<path d="M155.893 217.575C150.802 219.4 147.536 224.608 146.514 229.918C145.819 233.53 144.408 236.769 143.84 240.151C143.429 242.593 145.33 244.813 147.806 244.764C148.309 244.753 148.825 244.748 149.336 244.74C151.886 244.702 154.276 245.805 156.052 247.63C157.366 248.982 159.156 249.882 161.041 250.017C164.182 250.244 166.878 249.376 166.983 246.229C167.135 241.698 166.299 238.529 165.34 234.782C163.014 225.687 169.679 224.819 167.659 221.188C165.567 217.424 159.629 216.237 155.89 217.575H155.893Z" fill="#E96115"/>
<path d="M222.069 217.8C227.038 219.933 229.98 225.329 230.675 230.694C231.148 234.341 232.356 237.661 232.716 241.07C232.976 243.534 230.942 245.632 228.474 245.432C227.971 245.391 227.457 245.353 226.949 245.313C224.408 245.118 221.955 246.072 220.068 247.786C218.673 249.054 216.832 249.844 214.942 249.866C211.792 249.901 209.153 248.868 209.242 245.721C209.367 241.189 210.34 238.059 211.584 234.395C215.034 224.24 207.593 219.649 209.832 216.148C212.152 212.519 218.419 216.232 222.069 217.797V217.8Z" fill="#E96115"/>
<path d="M186.226 155.122C174.321 155.063 163.282 165.307 162.452 177.182C162.112 182.073 163.263 187.177 161.59 191.785C160.249 195.472 157.291 198.284 154.755 201.275C152.216 204.265 149.926 207.939 150.38 211.835C150.834 215.731 155.396 219.133 158.762 217.113C155.49 219.56 155.204 225.07 158.202 227.844C161.2 230.618 166.67 229.907 168.857 226.457C167.389 230.407 169.036 235.279 172.599 237.529C176.163 239.778 181.267 239.17 184.203 236.147C187.14 233.124 187.594 228.001 185.239 224.507C186.872 227.254 188.575 230.083 191.168 231.953C193.761 233.824 197.503 234.492 200.131 232.675C202.762 230.858 203.075 226.181 200.25 224.683C203.854 226.914 209.156 225.694 211.419 222.109C213.682 218.527 212.506 213.214 208.942 210.919C210.716 215.015 215.81 217.332 220.063 215.977C224.316 214.62 227.127 209.78 226.2 205.414C225.435 201.807 222.204 198.941 218.603 198.33C217.573 198.154 216.959 197.143 217.281 196.148C218.054 193.753 217.9 191.049 216.778 188.792C215.22 185.65 211.624 184.471 208.377 183.23C207.731 182.984 207.247 182.219 207.312 181.529C208.166 172.372 207.363 170.066 203.984 164.193C201.769 160.349 196.651 156.128 186.226 155.125" fill="#FFE17A"/>
<path d="M212.943 23.5H166.057C158.017 23.5 151.5 29.9832 151.5 37.9806V86.0194C151.5 94.0168 158.017 100.5 166.057 100.5H212.943C220.983 100.5 227.5 94.0168 227.5 86.0194V37.9806C227.5 29.9832 220.983 23.5 212.943 23.5Z" fill="#FF5662"/>
<path d="M190.523 34.6825C176.82 33.0452 164.357 42.6076 162.686 56.0372C161.016 69.4668 170.773 81.6803 184.477 83.3175C198.18 84.9548 210.643 75.3924 212.314 61.9628C213.984 48.5332 204.227 36.3197 190.523 34.6825Z" fill="white"/>
<path d="M205.096 72.8351C203.146 70.5021 199.674 70.1913 197.342 72.1409C195.009 74.0905 194.699 77.5622 196.649 79.8952L206.13 91.2389C208.08 93.5719 211.552 93.8827 213.885 91.9331C216.217 89.9836 216.527 86.5119 214.577 84.1789L205.096 72.8351Z" fill="white"/>
<path d="M189.556 42.6263C180.236 41.4918 171.763 48.1239 170.626 57.4439C169.492 66.7638 176.124 75.2369 185.444 76.3737C194.764 77.5082 203.237 70.8761 204.374 61.5561C205.508 52.2362 198.876 43.7631 189.556 42.6263Z" fill="#FF5662"/>
<path d="M192.391 59L197.59 53.8005C198.803 52.5873 198.803 50.6209 197.59 49.41C196.377 48.1967 194.41 48.1967 193.199 49.41L188 54.6094L182.801 49.41C181.587 48.1967 179.621 48.1967 178.41 49.41C177.197 50.6232 177.197 52.5896 178.41 53.8005L183.609 59L178.41 64.1994C177.197 65.4127 177.197 67.3791 178.41 68.59C179.623 69.8033 181.59 69.8033 182.801 68.59L188 63.3906L193.199 68.59C194.413 69.8033 196.379 69.8033 197.59 68.59C198.803 67.3768 198.803 65.4104 197.59 64.1994L192.391 59Z" fill="white"/>
</g>
<defs>
<clipPath id="clip0_5701_5885">
<rect width="365" height="365" fill="white"/>
</clipPath>
</defs>
</svg>
